<svg width="60" height="60" viewBox="0 0 60 60" fill="none" xmlns="http://www.w3.org/2000/svg">
<rect width="60" height="60" rx="12" fill="#FFCC33"/>
<g clip-path="url(#clip0_724_31)">
<path d="M25.4746 24.1651C25.4737 23.3766 25.6718 22.6006 26.0506 21.909C26.4294 21.2175 26.9766 20.6327 27.6416 20.2089C28.3065 19.7851 29.0676 19.536 29.8545 19.4846C30.6413 19.4332 31.4284 19.5813 32.1427 19.915C32.8571 20.2488 33.4757 20.7574 33.9412 21.3938C34.4068 22.0303 34.7041 22.7739 34.8058 23.5558C34.9074 24.3377 34.8101 25.1327 34.5228 25.867C34.2355 26.6012 33.7675 27.2512 33.1622 27.7565C32.301 28.4774 31.2584 29.3567 30.4402 30.3762C29.6137 31.399 28.9224 32.6792 28.9224 34.2085V35.5645C28.9224 35.8927 29.0528 36.2074 29.2848 36.4394C29.5169 36.6714 29.8316 36.8018 30.1597 36.8018C30.4879 36.8018 30.8026 36.6714 31.0346 36.4394C31.2666 36.2074 31.397 35.8927 31.397 35.5645V34.2085C31.397 33.4611 31.7286 32.7188 32.367 31.9269C33.0104 31.1285 33.8666 30.3943 34.7508 29.6536C35.6752 28.8811 36.3898 27.8878 36.8283 26.7658C37.2668 25.6437 37.4151 24.4292 37.2594 23.2346C37.1037 22.04 36.6492 20.904 35.9378 19.9318C35.2264 18.9595 34.2811 18.1825 33.1896 17.6727C32.0981 17.1629 30.8956 16.9368 29.6935 17.0152C28.4914 17.0936 27.3285 17.4742 26.3125 18.1215C25.2965 18.7688 24.4602 19.6621 23.8812 20.7185C23.3022 21.7749 22.9991 22.9604 23 24.1651C23 24.4932 23.1304 24.8079 23.3624 25.0399C23.5944 25.272 23.9091 25.4023 24.2373 25.4023C24.5654 25.4023 24.8801 25.272 25.1122 25.0399C25.3442 24.8079 25.4746 24.4932 25.4746 24.1651ZM30.1564 39.0305C29.7626 39.0305 29.385 39.187 29.1066 39.4654C28.8281 39.7438 28.6717 40.1215 28.6717 40.5153C28.6717 40.909 28.8281 41.2867 29.1066 41.5651C29.385 41.8436 29.7626 42 30.1564 42C30.5502 42 30.9278 41.8436 31.2063 41.5651C31.4847 41.2867 31.6411 40.909 31.6411 40.5153C31.6411 40.1215 31.4847 39.7438 31.2063 39.4654C30.9278 39.187 30.5502 39.0305 30.1564 39.0305Z" fill="#222222"/>
</g>
<defs>
<clipPath id="clip0_724_31">
<rect width="60" height="60" fill="white"/>
</clipPath>
</defs>
</svg>
